<?xml version="1.0" encoding="UTF-8" standalone="no"?>
<!-- Created with Inkscape (http://www.inkscape.org/) -->

<svg
   xmlns:dc="http://purl.org/dc/elements/1.1/"
   xmlns:cc="http://creativecommons.org/ns#"
   xmlns:rdf="http://www.w3.org/1999/02/22-rdf-syntax-ns#"
   xmlns:svg="http://www.w3.org/2000/svg"
   xmlns="http://www.w3.org/2000/svg"
   xmlns:xlink="http://www.w3.org/1999/xlink"
   xmlns:sodipodi="http://sodipodi.sourceforge.net/DTD/sodipodi-0.dtd"
   xmlns:inkscape="http://www.inkscape.org/namespaces/inkscape"
   width="168.81239mm"
   height="54.132885mm"
   viewBox="0 0 168.81238 54.132886"
   version="1.1"
   id="svg8"
   inkscape:version="0.92.4 (5da689c313, 2019-01-14)"
   sodipodi:docname="tynder-b.svg">
  <defs
     id="defs2">
    <linearGradient
       inkscape:collect="always"
       id="linearGradient1074">
      <stop
         style="stop-color:#e44513;stop-opacity:1;"
         offset="0"
         id="stop1070" />
      <stop
         style="stop-color:#e4be13;stop-opacity:1"
         offset="1"
         id="stop1072" />
    </linearGradient>
    <linearGradient
       inkscape:collect="always"
       xlink:href="#linearGradient1074"
       id="linearGradient849"
       x1="43.757324"
       y1="55.724529"
       x2="27.469343"
       y2="68.82074"
       gradientUnits="userSpaceOnUse" />
  </defs>
  <sodipodi:namedview
     id="base"
     pagecolor="#ffffff"
     bordercolor="#666666"
     borderopacity="1.0"
     inkscape:pageopacity="0.0"
     inkscape:pageshadow="2"
     inkscape:zoom="1.4142136"
     inkscape:cx="178.65003"
     inkscape:cy="-303.70272"
     inkscape:document-units="mm"
     inkscape:current-layer="layer1"
     showgrid="false"
     inkscape:window-width="3840"
     inkscape:window-height="2068"
     inkscape:window-x="-12"
     inkscape:window-y="-12"
     inkscape:window-maximized="1"
     fit-margin-left="0.8"
     fit-margin-top="0.8"
     fit-margin-bottom="0.8"
     fit-margin-right="0.8" />
  <metadata
     id="metadata5">
    <rdf:RDF>
      <cc:Work
         rdf:about="">
        <dc:format>image/svg+xml</dc:format>
        <dc:type
           rdf:resource="http://purl.org/dc/dcmitype/StillImage" />
        <dc:title></dc:title>
      </cc:Work>
    </rdf:RDF>
  </metadata>
  <g
     inkscape:label="Layer 1"
     inkscape:groupmode="layer"
     id="layer1"
     transform="translate(-2.7332623,-14.345769)">
    <g
       id="g854">
      <path
         sodipodi:nodetypes="csssc"
         inkscape:connector-curvature="0"
         id="path815-5-0"
         d="m 27.918874,15.145769 c 0,0 -23.6944923,8.143385 -24.3615014,27.226315 -0.551964,15.79174 8.4147194,24.57511 22.6336214,23.96745 14.23106,-0.6082 25.683642,-15.70742 11.90162,-26.92599 C 24.310592,28.194964 27.918874,15.145769 27.918874,15.145769 Z"
         style="fill:url(#linearGradient849);fill-opacity:1;stroke:none;stroke-width:0.14209548px;stroke-linecap:butt;stroke-linejoin:miter;stroke-opacity:1" />
      <path
         sodipodi:nodetypes="csssc"
         inkscape:connector-curvature="0"
         id="path815-5"
         d="m 22.498243,32.741937 c 0,0 15.040288,5.169088 15.463677,17.28214 0.350365,10.023956 -5.341316,15.599271 -14.36689,15.213551 -9.033292,-0.386056 -16.3029217,-9.970421 -7.554659,-17.091502 8.748261,-7.121098 6.457872,-15.404189 6.457872,-15.404189 z"
         style="fill:#a9a7ff;fill-opacity:1;stroke:none;stroke-width:0.09019636px;stroke-linecap:butt;stroke-linejoin:miter;stroke-opacity:1" />
      <path
         sodipodi:nodetypes="csssc"
         inkscape:connector-curvature="0"
         id="path815-5-5"
         d="m 25.178456,39.86067 c 0,0 10.803584,3.754008 11.107711,12.551019 0.251673,7.279813 -3.836721,11.328835 -10.319878,11.048709 -6.488701,-0.280359 -11.710545,-7.240932 -5.426584,-12.412567 6.28396,-5.171633 4.638751,-11.187161 4.638751,-11.187161 z"
         style="fill:#bfc5ff;fill-opacity:1;stroke:none;stroke-width:0.06514566px;stroke-linecap:butt;stroke-linejoin:miter;stroke-opacity:1" />
    </g>
    <path
       inkscape:connector-curvature="0"
       id="path1087"
       style="font-style:normal;font-variant:normal;font-weight:normal;font-stretch:normal;font-size:52.20608902px;line-height:1.25;font-family:Calibri;-inkscape-font-specification:Calibri;letter-spacing:0px;word-spacing:0px;fill:#e44513;fill-opacity:1;stroke:none;stroke-width:0.69918865"
       d="m 67.645043,29.686758 q 0,0.455712 -0.05418,0.791499 -0.05418,0.335786 -0.189646,0.551649 -0.10837,0.191879 -0.298016,0.287818 -0.162554,0.09594 -0.379294,0.09594 H 56.862294 V 58.32459 q 0,0.191878 -0.10837,0.335787 -0.108369,0.143908 -0.379293,0.239847 -0.270923,0.07195 -0.731493,0.119924 -0.433478,0.07195 -1.110785,0.07195 -0.650217,0 -1.110786,-0.07195 -0.460571,-0.04797 -0.731494,-0.119924 -0.270924,-0.09594 -0.379293,-0.239847 -0.108369,-0.143909 -0.108369,-0.335787 V 31.413663 h -9.861614 q -0.21674,0 -0.406386,-0.09594 -0.162554,-0.09594 -0.270924,-0.287818 -0.108369,-0.215863 -0.189646,-0.551649 -0.05418,-0.335787 -0.05418,-0.791499 0,-0.455711 0.05418,-0.791497 0.08127,-0.359772 0.189646,-0.575635 0.10837,-0.215863 0.270924,-0.311802 0.189646,-0.09594 0.406386,-0.09594 h 24.383111 q 0.21674,0 0.379294,0.09594 0.189646,0.09594 0.298016,0.311802 0.135461,0.215863 0.189646,0.575635 0.05418,0.335786 0.05418,0.791497 z" />
    <path
       inkscape:connector-curvature="0"
       id="path1089"
       style="font-style:normal;font-variant:normal;font-weight:normal;font-stretch:normal;font-size:52.20608902px;line-height:1.25;font-family:Calibri;-inkscape-font-specification:Calibri;letter-spacing:0px;word-spacing:0px;fill:#e44513;fill-opacity:1;stroke:none;stroke-width:0.69918865"
       d="m 76.103606,58.948193 -3.251081,7.938963 q -0.162555,0.383757 -0.839862,0.575635 -0.650216,0.215863 -2.004834,0.215863 -0.704403,0 -1.137879,-0.07195 -0.433478,-0.04797 -0.677308,-0.191879 -0.216739,-0.143908 -0.243831,-0.383756 -0.02709,-0.239847 0.13546,-0.575635 l 3.359453,-7.50724 q -0.243832,-0.09594 -0.460571,-0.311803 -0.21674,-0.215863 -0.298017,-0.455711 L 61.988493,37.553768 q -0.216738,-0.503681 -0.216738,-0.791499 0,-0.287817 0.216738,-0.455711 0.216739,-0.167893 0.704401,-0.215863 0.487662,-0.07195 1.300433,-0.07195 0.81277,0 1.273341,0.04797 0.460569,0.02398 0.731492,0.119923 0.270924,0.09594 0.379293,0.287818 0.135462,0.167893 0.270924,0.479695 l 6.962733,17.317013 h 0.08127 l 6.718902,-17.412952 q 0.162554,-0.455711 0.379294,-0.575634 0.243831,-0.143909 0.704401,-0.191879 0.46057,-0.07195 1.327525,-0.07195 0.758585,0 1.246247,0.07195 0.487663,0.04797 0.704401,0.215863 0.243831,0.167894 0.243831,0.455711 0,0.287817 -0.162554,0.719544 z" />
    <path
       inkscape:connector-curvature="0"
       id="path1091"
       style="font-style:normal;font-variant:normal;font-weight:normal;font-stretch:normal;font-size:52.20608902px;line-height:1.25;font-family:Calibri;-inkscape-font-specification:Calibri;letter-spacing:0px;word-spacing:0px;fill:#e44513;fill-opacity:1;stroke:none;stroke-width:0.69918865"
       d="m 107.42979,58.348573 q 0,0.191878 -0.10837,0.335788 -0.10837,0.119923 -0.3522,0.215862 -0.24383,0.09594 -0.67731,0.143909 -0.43348,0.04797 -1.08369,0.04797 -0.67731,0 -1.11079,-0.04797 -0.43346,-0.04797 -0.67729,-0.143909 -0.24383,-0.09594 -0.35221,-0.215862 -0.10836,-0.14391 -0.10836,-0.335788 v -12.63998 q 0,-1.846828 -0.32512,-2.974112 -0.32511,-1.127285 -0.94822,-1.942768 -0.62312,-0.815483 -1.62554,-1.247209 -0.975307,-0.431726 -2.275738,-0.431726 -1.679711,0 -3.359439,1.05533 -1.679726,1.055331 -3.522004,3.094037 v 15.086428 q 0,0.191878 -0.108369,0.335788 -0.10837,0.119923 -0.3522,0.215862 -0.243832,0.09594 -0.67731,0.143909 -0.433477,0.04797 -1.110787,0.04797 -0.650216,0 -1.083692,-0.04797 -0.433478,-0.04797 -0.704403,-0.143909 -0.243831,-0.09594 -0.352199,-0.215862 -0.08127,-0.14391 -0.08127,-0.335788 V 36.762269 q 0,-0.191878 0.08127,-0.311802 0.08127,-0.143909 0.325108,-0.239848 0.243831,-0.119924 0.623124,-0.143908 0.379293,-0.04797 1.002417,-0.04797 0.596031,0 0.975324,0.04797 0.406386,0.02398 0.623124,0.143908 0.216739,0.09594 0.298016,0.239848 0.10837,0.119924 0.10837,0.311802 v 2.85419 q 2.059017,-2.038707 4.090943,-2.974113 2.059013,-0.959392 4.145111,-0.959392 2.438294,0 4.090924,0.743529 1.67972,0.719543 2.70922,1.942767 1.02951,1.223223 1.46299,2.878174 0.46057,1.630965 0.46057,3.933504 z" />
    <path
       inkscape:connector-curvature="0"
       id="path1093"
       style="font-style:normal;font-variant:normal;font-weight:normal;font-stretch:normal;font-size:52.20608902px;line-height:1.25;font-family:Calibri;-inkscape-font-specification:Calibri;letter-spacing:0px;word-spacing:0px;fill:#e44513;fill-opacity:1;stroke:none;stroke-width:0.69918865"
       d="m 131.18109,58.348573 q 0,0.191878 -0.10838,0.335788 -0.0813,0.143908 -0.3251,0.239847 -0.21674,0.07195 -0.59603,0.119924 -0.3793,0.04797 -0.92114,0.04797 -0.56894,0 -0.94824,-0.04797 -0.37929,-0.04797 -0.62312,-0.119924 -0.24383,-0.09594 -0.3522,-0.239847 -0.10837,-0.14391 -0.10837,-0.335788 v -2.854189 q -1.92356,1.846829 -4.00966,2.878175 -2.05903,1.031344 -4.52443,1.031344 -2.68214,0 -4.57861,-0.911421 -1.89646,-0.935406 -3.08853,-2.494418 -1.16496,-1.582994 -1.70681,-3.693656 -0.54185,-2.134645 -0.54185,-4.485154 0,-2.782235 0.67731,-5.01282 0.67731,-2.254569 2.00483,-3.837564 1.32753,-1.582996 3.27817,-2.422464 1.97774,-0.863452 4.55152,-0.863452 2.14029,0 3.90129,0.839468 1.78811,0.815482 3.52202,2.422462 V 26.400843 q 0,-0.167893 0.0813,-0.311802 0.10838,-0.167893 0.3793,-0.239847 0.27092,-0.09594 0.6773,-0.143909 0.43348,-0.07195 1.0837,-0.07195 0.67731,0 1.11078,0.07195 0.43348,0.04797 0.67731,0.143909 0.24383,0.07195 0.3522,0.239847 0.13547,0.143909 0.13547,0.311802 z m -4.49733,-15.182367 q -1.8152,-1.990737 -3.52202,-3.022082 -1.67971,-1.055331 -3.522,-1.055331 -1.70682,0 -2.89887,0.719544 -1.19207,0.719543 -1.95065,1.894798 -0.7315,1.175254 -1.0837,2.66231 -0.32511,1.487057 -0.32511,3.022083 0,1.630965 0.27092,3.189976 0.29802,1.559011 1.00242,2.782234 0.7044,1.19924 1.86938,1.942768 1.16496,0.719544 2.92597,0.719544 0.89404,0 1.70681,-0.215864 0.83987,-0.215863 1.70682,-0.719543 0.86696,-0.503681 1.81519,-1.295178 0.94823,-0.815483 2.00484,-1.990737 z" />
    <path
       inkscape:connector-curvature="0"
       id="path1095"
       style="font-style:normal;font-variant:normal;font-weight:normal;font-stretch:normal;font-size:52.20608902px;line-height:1.25;font-family:Calibri;-inkscape-font-specification:Calibri;letter-spacing:0px;word-spacing:0px;fill:#e44513;fill-opacity:1;stroke:none;stroke-width:0.69918865"
       d="m 154.95947,46.620015 q 0,0.935407 -0.54184,1.343148 -0.51476,0.383756 -1.19207,0.383756 h -15.98448 q 0,1.798859 0.40638,3.237946 0.40639,1.439087 1.35462,2.470433 0.94824,1.031345 2.46541,1.582996 1.51717,0.551649 3.71165,0.551649 1.73391,0 3.08852,-0.239848 1.35462,-0.263832 2.32995,-0.575634 1.00242,-0.311803 1.62553,-0.55165 0.65022,-0.263833 0.97533,-0.263833 0.18965,0 0.3251,0.09594 0.16256,0.07195 0.24384,0.239848 0.0813,0.167893 0.10837,0.479696 0.0542,0.287817 0.0542,0.719543 0,0.311802 -0.0271,0.55165 -0.0271,0.215862 -0.0813,0.407742 -0.0271,0.167892 -0.13546,0.311802 -0.0813,0.143908 -0.24383,0.287817 -0.13547,0.119924 -0.86696,0.431725 -0.73149,0.287819 -1.89646,0.575636 -1.16497,0.287817 -2.70923,0.50368 -1.51717,0.239847 -3.25108,0.239847 -3.00725,0 -5.28302,-0.743527 -2.24866,-0.743528 -3.79292,-2.2066 -1.54426,-1.463072 -2.32994,-3.669672 -0.78569,-2.2066 -0.78569,-5.132743 0,-2.782235 0.81278,-4.988835 0.81277,-2.230585 2.32994,-3.765611 1.54426,-1.559011 3.71165,-2.374493 2.16739,-0.839468 4.84953,-0.839468 2.87179,0 4.87662,0.815482 2.03193,0.815483 3.33236,2.206601 1.30043,1.367132 1.89646,3.237945 0.62313,1.846829 0.62313,3.957489 z m -4.49733,-1.175255 q 0.0813,-3.118021 -1.57135,-4.892895 -1.62555,-1.774874 -4.84953,-1.774874 -1.65264,0 -2.89889,0.551651 -1.24625,0.551649 -2.08611,1.463071 -0.83985,0.911422 -1.30043,2.134646 -0.46057,1.199238 -0.51475,2.518401 z" />
    <path
       inkscape:connector-curvature="0"
       id="path1097"
       style="font-style:normal;font-variant:normal;font-weight:normal;font-stretch:normal;font-size:52.20608902px;line-height:1.25;font-family:Calibri;-inkscape-font-specification:Calibri;letter-spacing:0px;word-spacing:0px;fill:#e44513;fill-opacity:1;stroke:none;stroke-width:0.69918865"
       d="m 170.74562,38.177371 q 0,0.527666 -0.0271,0.887438 -0.0271,0.359772 -0.10837,0.575635 -0.0813,0.191878 -0.21674,0.311801 -0.10837,0.09594 -0.32511,0.09594 -0.21673,0 -0.54185,-0.09594 -0.29801,-0.119923 -0.7044,-0.215862 -0.37929,-0.119924 -0.86695,-0.215863 -0.48766,-0.09594 -1.0566,-0.09594 -0.67731,0 -1.32753,0.239847 -0.65021,0.239848 -1.3817,0.791497 -0.70441,0.551651 -1.49008,1.463073 -0.78569,0.911422 -1.73391,2.230585 v 14.19899 q 0,0.191878 -0.10838,0.335788 -0.10836,0.119923 -0.35219,0.215862 -0.24383,0.09594 -0.67731,0.143909 -0.43348,0.04797 -1.11079,0.04797 -0.65022,0 -1.0837,-0.04797 -0.43348,-0.04797 -0.7044,-0.143909 -0.24383,-0.09594 -0.3522,-0.215862 -0.0813,-0.14391 -0.0813,-0.335788 V 36.762269 q 0,-0.191878 0.0813,-0.311802 0.0813,-0.143909 0.32511,-0.239848 0.24383,-0.119924 0.62313,-0.143908 0.37929,-0.04797 1.00242,-0.04797 0.59602,0 0.97532,0.04797 0.40638,0.02398 0.62312,0.143908 0.21674,0.09594 0.29801,0.239848 0.10838,0.119924 0.10838,0.311802 v 3.142007 q 1.00241,-1.295178 1.86936,-2.110661 0.89406,-0.815482 1.67973,-1.271193 0.78568,-0.479696 1.54426,-0.647589 0.78569,-0.191879 1.57137,-0.191879 0.35219,0 0.78567,0.04797 0.46057,0.02398 0.94824,0.119924 0.48766,0.09594 0.86695,0.215863 0.40639,0.119924 0.56894,0.239847 0.16255,0.119925 0.21673,0.239849 0.0542,0.09594 0.0813,0.263832 0.0542,0.167894 0.0542,0.50368 0.0271,0.311802 0.0271,0.863452 z" />
    <g
       aria-label=".JS"
       style="font-style:normal;font-variant:normal;font-weight:normal;font-stretch:normal;font-size:6.3499999px;line-height:1.25;font-family:Arial;-inkscape-font-specification:Arial;letter-spacing:0px;word-spacing:0px;fill:#e44513;fill-opacity:1;stroke:none;stroke-width:0.26458332"
       id="text915"
       transform="matrix(1.0189496,0,0,0.71052304,150.84662,-28.327309)">
      <path
         d="m 10.194196,131.95552 q 0,0.44856 -0.159163,0.6029 -0.1543407,0.15434 -0.559484,0.15434 -0.4051432,0 -0.5594835,-0.14952 -0.1543403,-0.15434 -0.1543403,-0.57878 0,-0.45337 0.1543403,-0.60771 0.1591634,-0.15434 0.5691298,-0.15434 0.4003201,0 0.5546607,0.15434 0.15434,0.14951 0.15434,0.57877 z"
         style="font-style:normal;font-variant:normal;font-weight:bold;font-stretch:normal;font-size:9.87777805px;font-family:Calibri;-inkscape-font-specification:'Calibri Bold';fill:#e44513;fill-opacity:1;stroke-width:0.26458332"
         id="path917"
         inkscape:connector-curvature="0" />
      <path
         d="m 13.575213,130.91373 q 0,0.42443 -0.08199,0.76688 -0.07717,0.33761 -0.270096,0.57877 -0.188102,0.23633 -0.496783,0.36174 -0.30868,0.1254 -0.762055,0.1254 -0.144694,0 -0.289388,-0.0241 -0.139871,-0.0193 -0.260449,-0.053 -0.115755,-0.0338 -0.202572,-0.0724 -0.08682,-0.0386 -0.115755,-0.0675 -0.02894,-0.0338 -0.04823,-0.0675 -0.01929,-0.0338 -0.03376,-0.0868 -0.01447,-0.0579 -0.01929,-0.13987 -0.0048,-0.082 -0.0048,-0.2074 0,-0.16399 0.0048,-0.27492 0.0096,-0.11575 0.02412,-0.17845 0.01929,-0.0675 0.04823,-0.0916 0.03376,-0.0289 0.08199,-0.0289 0.04341,0 0.101285,0.0338 0.05788,0.0289 0.130225,0.0627 0.07235,0.0338 0.16881,0.0675 0.09646,0.0289 0.226687,0.0289 0.130225,0 0.226687,-0.0338 0.101286,-0.0386 0.163987,-0.1254 0.06752,-0.0916 0.101286,-0.24116 0.03376,-0.14951 0.03376,-0.38585 v -4.28776 q 0,-0.0482 0.02894,-0.082 0.03376,-0.0386 0.101286,-0.0627 0.07235,-0.0241 0.197749,-0.0338 0.125401,-0.0145 0.30868,-0.0145 0.183279,0 0.303858,0.0145 0.120578,0.01 0.192925,0.0338 0.07717,0.0241 0.106109,0.0627 0.03376,0.0338 0.03376,0.082 z"
         style="font-style:normal;font-variant:normal;font-weight:bold;font-stretch:normal;font-size:9.87777805px;font-family:Calibri;-inkscape-font-specification:'Calibri Bold';fill:#e44513;fill-opacity:1;stroke-width:0.26458332"
         id="path919"
         inkscape:connector-curvature="0" />
      <path
         d="m 18.63468,130.77868 q 0,0.49196 -0.183279,0.86334 -0.183279,0.37138 -0.496783,0.62218 -0.313503,0.24598 -0.733116,0.37139 -0.419613,0.1254 -0.897103,0.1254 -0.32315,0 -0.602892,-0.0531 -0.274918,-0.0531 -0.487136,-0.1254 -0.212218,-0.0772 -0.356912,-0.15916 -0.139871,-0.082 -0.202572,-0.1447 -0.0627,-0.0627 -0.09164,-0.17845 -0.02412,-0.12058 -0.02412,-0.34244 0,-0.14952 0.0096,-0.25081 0.0096,-0.10128 0.02894,-0.16398 0.02412,-0.0627 0.05788,-0.0868 0.03858,-0.0289 0.08682,-0.0289 0.06752,0 0.188103,0.082 0.125401,0.0772 0.318326,0.17364 0.192926,0.0965 0.458198,0.17845 0.270096,0.0772 0.622184,0.0772 0.231511,0 0.41479,-0.0531 0.183279,-0.0579 0.30868,-0.15917 0.130225,-0.10128 0.197749,-0.2508 0.06752,-0.14952 0.06752,-0.33279 0,-0.21222 -0.115755,-0.36174 -0.115756,-0.15434 -0.303858,-0.27009 -0.183279,-0.12058 -0.419613,-0.22187 -0.236333,-0.10611 -0.487136,-0.22186 -0.250803,-0.11576 -0.487137,-0.26045 -0.236333,-0.14952 -0.424435,-0.35209 -0.183279,-0.2074 -0.299035,-0.48714 -0.115755,-0.27974 -0.115755,-0.67041 0,-0.44855 0.163987,-0.78617 0.168809,-0.34245 0.448551,-0.56431 0.284565,-0.22669 0.665593,-0.33762 0.38585,-0.11093 0.815109,-0.11093 0.221864,0 0.443729,0.0338 0.221864,0.0338 0.414789,0.0916 0.192925,0.0579 0.342443,0.13022 0.149517,0.0724 0.197748,0.12058 0.04823,0.0482 0.0627,0.082 0.01929,0.0338 0.02894,0.0916 0.01447,0.0531 0.01929,0.13988 0.0048,0.082 0.0048,0.20739 0,0.13987 -0.0096,0.23633 -0.0048,0.0965 -0.02412,0.15917 -0.01447,0.0627 -0.04823,0.0916 -0.02894,0.0289 -0.08199,0.0289 -0.05305,0 -0.16881,-0.0675 -0.115755,-0.0675 -0.284565,-0.14469 -0.16881,-0.082 -0.390674,-0.1447 -0.221864,-0.0675 -0.487136,-0.0675 -0.207395,0 -0.361735,0.053 -0.154341,0.0482 -0.26045,0.13988 -0.101285,0.0868 -0.15434,0.21221 -0.04823,0.1254 -0.04823,0.26528 0,0.20739 0.110932,0.36173 0.115755,0.14952 0.303857,0.2701 0.192926,0.11575 0.434082,0.22186 0.241157,0.10129 0.49196,0.21704 0.250803,0.11576 0.49196,0.26527 0.241156,0.1447 0.429259,0.35209 0.188102,0.20257 0.303857,0.48232 0.115755,0.27491 0.115755,0.65112 z"
         style="font-style:normal;font-variant:normal;font-weight:bold;font-stretch:normal;font-size:9.87777805px;font-family:Calibri;-inkscape-font-specification:'Calibri Bold';fill:#e44513;fill-opacity:1;stroke-width:0.26458332"
         id="path921"
         inkscape:connector-curvature="0" />
    </g>
  </g>
</svg>
